<svg xmlns="http://www.w3.org/2000/svg" width="75.599" height="96.211" viewBox="0 0 75.599 96.211">
  <path id="_05_Water_Aqua_Drop_Rain" data-name="05  Water, Aqua, Drop, Rain" d="M44.758,2.615a3.436,3.436,0,0,0-3.917,0C39.363,3.645,5,28.043,5,56.977,5,81.031,20.91,98.213,42.8,98.213S80.6,81.031,80.6,56.977C80.6,28.043,46.236,3.645,44.758,2.615ZM42.8,91.34c-17.9,0-30.927-14.467-30.927-34.363,0-21.683,23.814-41.751,30.927-47.249,7.113,5.5,30.927,25.532,30.927,47.249C73.726,76.873,60.7,91.34,42.8,91.34ZM32.49,70.722v6.873A13.745,13.745,0,0,1,21.7,71.341a21.065,21.065,0,0,1-2.783-18.9l6.529,2.2a14.3,14.3,0,0,0,1.821,12.646A7.251,7.251,0,0,0,32.49,70.722Z" transform="translate(-5 -2.002)"/>
</svg>
