<svg xmlns="http://www.w3.org/2000/svg" xmlns:xlink="http://www.w3.org/1999/xlink" width="1920" height="979" viewBox="0 0 1920 979">
  <defs>
    <clipPath id="clip-path">
      <rect id="Rectangle_26" data-name="Rectangle 26" width="1440" height="960" transform="translate(0 0)" fill="none"/>
    </clipPath>
  </defs>
  <g id="Group_8" data-name="Group 8" transform="translate(-154 1435)">
    <rect id="Rectangle_2" data-name="Rectangle 2" width="1920" height="960" transform="translate(154 -1416)" fill="#223aff"/>
    <g id="Group_5" data-name="Group 5" transform="translate(548 -1435)" clip-path="url(#clip-path)">
      <path id="Path_126" data-name="Path 126" d="M678.182,376.49l-1.658,1.321c-1.14.777-2.747,2.047-4.949,3.394l-7.773,5.182c-3.031,1.943-6.426,4.146-10.364,6.3a366.382,366.382,0,0,1-58.585,28.061,382.877,382.877,0,0,1-62.575,17.49l-11.919,2.125c-3.55.57-6.685.881-9.25,1.244l-8.058,1.011" transform="translate(548.753 450.691)" fill="none" stroke="#5fc6ff" stroke-miterlimit="10" stroke-width="0.52"/>
      <path id="Path_127" data-name="Path 127" d="M592.08,532.585s-1.3-.311-3.627-1.14l-10.235-3.472c-4.431-1.373-9.665-3.5-15.676-5.882s-12.7-5.364-19.951-8.628A376.04,376.04,0,0,1,495.2,486.826a389.588,389.588,0,0,1-48.946-38.581,377,377,0,0,1-71.825-91.491c-2.047-3.42-3.783-6.815-5.415-10.054l-4.716-9.2c-2.772-5.83-5-11.012-6.944-15.236s-3.109-7.773-4.094-9.976a34.768,34.768,0,0,1-1.4-3.55" transform="translate(308.195 342.894)" fill="none" stroke="#5fc6ff" stroke-miterlimit="10" stroke-width="0.52"/>
      <path id="Path_128" data-name="Path 128" d="M636.907,392.137,628.875,394c-2.591.544-5.649,1.425-9.276,2.021l-12.1,2.151a360.161,360.161,0,0,1-131.446-3.343l-12-2.747c-3.576-.829-6.607-1.84-9.147-2.591l-7.929-2.254" transform="translate(459.54 467.795)" fill="none" stroke="#5fc6ff" stroke-miterlimit="10" stroke-width="0.52"/>
      <path id="Path_129" data-name="Path 129" d="M738.087,326.56l-1.555,2.721-4.794,7.436c-2.047,3.213-4.482,7.125-7.644,11.4s-6.452,9.276-10.6,14.329l-6.3,8.032-7.125,8.24c-1.244,1.4-2.462,2.85-3.731,4.3l-4.016,4.275L684.037,396a396.654,396.654,0,0,1-38.711,33.4,391.389,391.389,0,0,1-43.09,27.517c-7.281,3.653-14.2,7.514-21.092,10.364-3.42,1.529-6.711,3.083-9.924,4.483l-9.483,3.628c-6.037,2.591-11.764,4.275-16.764,6.011s-9.483,3.006-13.137,4.016l-8.5,2.436c-1.969.544-3.058.725-3.058.725" transform="translate(576.167 371.247)" fill="none" stroke="#5fc6ff" stroke-miterlimit="10" stroke-width="0.52"/>
      <path id="Path_130" data-name="Path 130" d="M771.866,332.86l-6.814,11.815L756.6,357.838c-3.239,5.182-7.359,10.546-11.634,16.635-2.125,3.032-4.612,6.011-7.048,9.173s-4.975,6.478-7.773,9.691c-5.571,6.426-11.323,13.318-17.853,19.925s-13.37,13.344-20.418,20.081a273.322,273.322,0,0,1-22.62,19.019c-7.9,6.063-15.909,11.815-23.864,17.464-8.214,5.182-16.22,10.572-24.356,15.054s-16.065,8.706-23.657,12.619c-3.783,1.943-7.618,3.524-11.245,5.182s-7.152,3.343-10.623,4.69c-6.944,2.591-13.215,5.338-18.941,7.307l-14.821,5.1c-4.146,1.3-7.437,2.151-9.665,2.8l-3.446.985" transform="translate(589.469 381.271)" fill="none" stroke="#5fc6ff" stroke-miterlimit="10" stroke-width="0.52"/>
      <path id="Path_131" data-name="Path 131" d="M586.375,477.509l-2.928-.674-3.524-.8-4.69-1.322c-3.5-1.011-7.773-2.15-12.644-3.627s-10.364-3.42-16.143-5.545A341.038,341.038,0,0,1,399.531,359.3c-3.861-4.923-7.488-9.38-10.364-13.6s-5.623-7.773-7.514-10.8l-6.193-9.665" transform="translate(345.745 369.131)" fill="none" stroke="#5fc6ff" stroke-miterlimit="10" stroke-width="0.52"/>
      <path id="Path_132" data-name="Path 132" d="M649.931,418.832l-9.25,1.658c-2.954.492-6.53,1.27-10.649,1.788l-13.888,1.762A415.383,415.383,0,0,1,541,425.465,410.3,410.3,0,0,1,466.87,413.08L453.4,409.245c-4.016-1.114-7.436-2.436-10.364-3.343L434.3,403" transform="translate(439.365 492.87)" fill="none" stroke="#5fc6ff" stroke-miterlimit="10" stroke-width="0.52"/>
      <path id="Path_133" data-name="Path 133" d="M645.543,372.87s-10.157,4.742-25.911,10.157a322.132,322.132,0,0,1-59.6,14.406,333.151,333.151,0,0,1-61.383,3.058c-4.2,0-8.032-.57-11.427-.752s-6.374-.441-8.784-.7l-7.644-.985" transform="translate(497.44 444.931)" fill="none" stroke="#5fc6ff" stroke-miterlimit="10" stroke-width="0.52"/>
      <path id="Path_134" data-name="Path 134" d="M365.68,367.66s12.1,1.218,23.708,1.892,23.32.363,23.32.363l.933.881c.622.6,1.529,1.451,2.721,2.462l9.9,8.577c2.021,1.814,4.3,3.628,6.763,5.545l7.773,6.011c2.591,2.15,5.467,4.172,8.369,6.219l8.784,6.245c5.96,4.042,12.1,7.773,17.8,11.5l16.039,9.224,16.065,8.24.622,1.684c.415,1.036.985,2.591,1.71,4.275,1.425,3.55,3.42,8.317,5.493,13.111,1.088,2.41,2.151,4.819,3.135,7.1s2.073,4.249,2.928,6.011l2.98,5.908,5.934,2.332c3.731,1.581,9.276,3.368,15.858,5.6a408.54,408.54,0,0,0,99.731,20.237c6.918.518,12.7,1.036,16.738,1.036l6.374.155" transform="translate(330.184 436.641)" fill="none" stroke="#5fc6ff" stroke-miterlimit="10" stroke-width="0.52"/>
      <path id="Path_135" data-name="Path 135" d="M708.264,546.054h-7.126l-4.949-.129c-3.628-.156-7.773,0-12.385-.415s-9.354-.674-14.147-1.114l-14.07-1.788-12.152-2.176c-3.576-.518-6.478-1.373-8.525-1.814l-3.239-.726s-4.638-9.276-8.343-18.941c-1.892-4.768-3.679-9.38-4.9-12.955l-1.943-6.037-2.8-.959c-1.814-.674-4.56-1.347-7.773-2.772a272.4,272.4,0,0,1-99.861-66.021,276.85,276.85,0,0,1-30.445-37.752,267.827,267.827,0,0,1-20.573-36.845l-3.654-8.084c-1.036-2.591-2-5.182-2.9-7.436-1.969-4.638-3.213-8.836-4.4-12.23-.6-1.71-1.114-3.213-1.555-4.534s-.725-2.591-.985-3.42c-.518-1.866-.8-2.85-.8-2.85l-3.938-1.451c-2.591-.959-6.245-2.332-10.364-4.172a294.426,294.426,0,0,1-31.093-15.546c-2.8-1.581-5.6-3.239-8.369-4.9s-5.312-3.394-7.773-5.182c-5.182-3.368-9.9-6.711-13.992-9.691-7.773-5.959-13.163-10.364-13.163-10.364" transform="translate(308.481 274.493)" fill="none" stroke="#5fc6ff" stroke-miterlimit="10" stroke-width="0.52"/>
      <path id="Path_136" data-name="Path 136" d="M524.27,536.526l5.338-1.788,13.759-5.467a322.124,322.124,0,0,0,39.877-20.729,288.953,288.953,0,0,0,36.275-26.559l6.348-5.493c1.891-1.632,3.394-3.213,4.716-4.431l4.094-3.887s2.591.363,6.141.751,8.576.751,13.6,1.088,10.157.544,13.888.518h6.374s.855-1.011,2.41-2.773c.752-.881,1.684-1.969,2.773-3.187l3.368-4.327a293.592,293.592,0,0,0,17.334-23.786c1.425-2.254,2.876-4.508,4.3-6.711s2.824-4.4,4.042-6.607c2.591-4.353,4.871-8.369,6.763-11.893l6.089-11.919s.959-.207,2.591-.674l6.581-2c2.747-.829,5.959-1.866,9.432-3.006s7.229-2.436,10.8-3.861c7.229-2.8,14.666-5.856,20.159-8.343l9.017-4.3,1.71-5c.518-1.607,1.244-3.524,1.891-5.752s1.347-4.794,2.125-7.566,1.658-5.752,2.591-8.939,1.529-6.581,2.358-10.105c1.762-6.97,3.006-14.536,4.353-22.1.751-3.757,1.192-7.566,1.658-11.323s.959-7.436,1.4-10.986c.57-7.177,1.088-13.862,1.529-19.615.285-11.478.492-19.148.492-19.148" transform="translate(582.515 259.95)" fill="none" stroke="#5fc6ff" stroke-miterlimit="10" stroke-width="0.52"/>
      <path id="Path_137" data-name="Path 137" d="M729.548,260.82s0,1.788-.13,4.871c0,1.555,0,3.446-.155,5.623s-.337,4.586-.544,7.255c-.648,10.624-2.177,24.8-4.483,38.866-.622,3.5-1.244,7.022-1.865,10.364-.311,1.71-.622,3.42-.907,5.182s-.751,3.343-1.114,4.975c-1.554,6.5-2.8,12.593-4.223,17.749l-4.871,17.127s4.742,10.52,9.172,21.687c2.332,5.623,4.12,11.168,5.649,15.547l2.41,7.2-.933,2.358c-.622,1.555-1.477,3.835-2.8,6.659s-2.824,6.244-4.586,10.183l-2.8,6.193-3.42,6.815c-2.462,4.716-4.975,9.924-7.981,15.236L696.408,481.3l-11.064,17.257c-3.964,5.726-8.11,11.479-12.23,17.231a440.247,440.247,0,0,1-51.822,58.041c-15.547,14.562-26.662,23.32-26.662,23.32" transform="translate(694.465 266.649)" fill="none" stroke="#5fc6ff" stroke-miterlimit="10" stroke-width="0.52"/>
      <path id="Path_138" data-name="Path 138" d="M678.064,263.32s-.337,4.379-.855,10.96c-.129,3.317-.726,7.1-1.244,11.194s-.985,8.473-1.866,12.774-1.4,8.68-2.358,12.67-1.788,7.773-2.591,10.96-1.607,5.83-2.073,7.773a26.791,26.791,0,0,1-.829,2.9s-3.576,1.58-8.836,3.757-12.7,4.742-19.8,7.074-14.51,4.2-19.8,5.519c-2.591.648-4.845,1.166-6.478,1.477l-2.591.518-1.529,3.368c-1.036,2.1-2.2,5.182-4.146,8.81s-3.809,7.773-6.478,12.178l-3.861,6.737c-1.4,2.254-2.9,4.508-4.327,6.789-2.773,4.612-6.115,8.887-8.965,12.955s-6.037,7.773-8.473,10.934l-8.784,10.364" transform="translate(642.85 270.627)" fill="none" stroke="#5fc6ff" stroke-miterlimit="10" stroke-width="0.52"/>
      <path id="Path_139" data-name="Path 139" d="M441,488.505l-6.5-9.121c-2-2.591-3.99-6.089-6.3-9.587s-4.794-7.255-7-11.142c-4.483-7.773-8.991-15.547-11.919-21.558-1.529-3.006-2.8-5.493-3.705-7.229s-1.373-2.747-1.373-2.747-4.172-1.632-10.52-4.3-14.977-6.374-23.32-10.623c-4.172-2.125-8.4-4.3-12.385-6.4s-7.488-4.249-10.623-6.063c-6.193-3.653-10.364-6.245-10.364-6.245s-.725-2.073-1.866-5.7-2.591-8.913-4.327-15.184c-.44-1.58-.907-3.213-1.373-4.923s-.829-3.472-1.244-5.182c-.855-3.628-1.736-7.488-2.591-11.453s-1.71-8.136-2.462-12.359-1.5-8.5-2.254-12.774c-1.244-8.628-2.332-17.257-3.239-25.367s-1.244-15.7-1.632-22.18c-.311-12.955-.544-21.687-.544-21.687" transform="translate(250.279 260.062)" fill="none" stroke="#5fc6ff" stroke-miterlimit="10" stroke-width="0.52"/>
      <path id="Path_140" data-name="Path 140" d="M767.756,400.23l-5.623,3.239c-3.55,2.125-8.81,4.794-15.132,8.007A435.01,435.01,0,0,1,699.4,432.2c-8.965,2.98-17.853,6.3-26.429,8.551l-12.282,3.472-11.142,2.591-9.432,2.151c-2.8.57-5.182.985-7.307,1.373l-6.4,1.14-5.571,6.763c-3.394,4.042-8.058,9.121-12.955,14.355s-9.9,10.364-13.785,14.07l-6.555,6.219-6.115.466c-3.913.363-9.483.466-16.143.648l-10.8.259c-3.809,0-7.773,0-12.023-.207l-12.955-.363c-4.379-.259-8.836-.622-13.292-.933s-8.913-.6-13.266-1.14l-12.826-1.632c-8.343-.933-16.013-2.462-22.646-3.6l-8.991-1.658-6.892-1.58-6.011-1.373" transform="translate(457.312 488.463)" fill="none" stroke="#5fc6ff" stroke-miterlimit="10" stroke-width="0.52"/>
      <path id="Path_141" data-name="Path 141" d="M403.34,177.279l1.736-1.244c1.14-.777,2.747-2.021,4.949-3.394l7.773-5.027c3.032-1.969,6.426-4.172,10.364-6.322a365.729,365.729,0,0,1,58.611-28.036,384.855,384.855,0,0,1,62.575-17.568l11.919-2.125c3.55-.57,6.685-.881,9.25-1.218l8.058-1.036" transform="translate(390.105 28.765)" fill="none" stroke="#5fc6ff" stroke-miterlimit="10" stroke-width="0.52"/>
      <path id="Path_142" data-name="Path 142" d="M529.41,118.13s1.3.311,3.628,1.14l10.364,3.446c4.431,1.4,9.665,3.524,15.547,5.882s12.7,5.389,19.951,8.654a372.824,372.824,0,0,1,47.391,26.636,384.914,384.914,0,0,1,48.946,38.581,376.932,376.932,0,0,1,71.825,91.517c2.047,3.42,3.783,6.841,5.415,10.079l4.716,9.172c2.773,5.856,5.027,11.012,6.944,15.236s3.109,7.773,4.094,10l1.4,3.55" transform="translate(590.694 39.616)" fill="none" stroke="#5fc6ff" stroke-miterlimit="10" stroke-width="0.52"/>
      <path id="Path_143" data-name="Path 143" d="M453.7,130.578l8.032-1.866c2.591-.518,5.649-1.425,9.276-2l12.1-2.177A368.717,368.717,0,0,1,549,120.162a362.415,362.415,0,0,1,65.555,7.773l12,2.772c3.576.8,6.607,1.814,9.146,2.591l7.929,2.151" transform="translate(470.232 42.689)" fill="none" stroke="#5fc6ff" stroke-miterlimit="10" stroke-width="0.52"/>
      <path id="Path_144" data-name="Path 144" d="M369.64,286.245l1.581-2.591c1.088-1.736,2.591-4.249,4.768-7.462s4.483-7.126,7.773-11.4,6.452-9.276,10.6-14.329l6.3-8.007,7.126-8.24,3.731-4.3,4.016-4.249,8.292-8.68A400.393,400.393,0,0,1,462.4,183.4a391.372,391.372,0,0,1,43.09-27.517c7.281-3.653,14.2-7.488,21.091-10.364,3.42-1.529,6.711-3.057,9.95-4.457l9.458-3.731c6.037-2.591,11.764-4.275,16.79-6.011s9.458-3.006,13.111-4.042l8.5-2.41c1.969-.544,3.057-.751,3.057-.751" transform="translate(336.485 49.146)" fill="none" stroke="#5fc6ff" stroke-miterlimit="10" stroke-width="0.52"/>
      <path id="Path_145" data-name="Path 145" d="M351.47,297.431l6.841-11.789,8.421-13.189c3.239-5.182,7.359-10.52,11.634-16.609,2.125-3.057,4.612-6.011,7.048-9.2s4.975-6.452,7.773-9.665c5.571-6.426,11.323-13.344,17.853-19.951s13.37-13.344,20.418-20.081a268.038,268.038,0,0,1,22.62-18.993c7.9-6.037,15.909-11.841,23.864-17.464a257.052,257.052,0,0,1,24.356-15.08c8.136-4.483,16.065-8.706,23.657-12.593,3.783-1.943,7.618-3.55,11.245-5.182s7.151-3.317,10.623-4.664c6.944-2.591,13.215-5.364,18.941-7.333l14.821-5c4.146-1.321,7.436-2.176,9.665-2.824l3.446-.985" transform="translate(307.574 21.636)" fill="none" stroke="#5fc6ff" stroke-miterlimit="10" stroke-width="0.52"/>
      <path id="Path_146" data-name="Path 146" d="M517.13,129.23l2.9.674,3.524.8,4.69,1.321c3.5,1.036,7.773,2.177,12.645,3.653s10.364,3.394,16.142,5.545A340.7,340.7,0,0,1,703.948,247.462c3.861,4.923,7.488,9.38,10.364,13.6s5.623,7.773,7.514,10.8c3.965,6.141,6.193,9.665,6.193,9.665" transform="translate(571.155 57.277)" fill="none" stroke="#5fc6ff" stroke-miterlimit="10" stroke-width="0.52"/>
      <path id="Path_147" data-name="Path 147" d="M456.46,108.851l9.25-1.658c2.954-.492,6.53-1.244,10.649-1.788l13.888-1.762a418,418,0,0,1,75.142-1.4,410.3,410.3,0,0,1,74.131,12.385l13.474,3.835c4.016,1.088,7.436,2.41,10.364,3.317l8.913,3.032" transform="translate(474.623 12.645)" fill="none" stroke="#5fc6ff" stroke-miterlimit="10" stroke-width="0.52"/>
      <path id="Path_148" data-name="Path 148" d="M435.75,157.515s10.131-4.716,25.911-10.157a324.348,324.348,0,0,1,59.6-14.381,330.856,330.856,0,0,1,61.383-3.058c4.2,0,8.032.544,11.427.726s6.374.44,8.784.7l7.773.985" transform="translate(441.672 57.883)" fill="none" stroke="#5fc6ff" stroke-miterlimit="10" stroke-width="0.52"/>
      <path id="Path_149" data-name="Path 149" d="M794.649,228.215s-12.1-1.218-23.709-1.866-23.32-.389-23.32-.389l-.933-.881c-.622-.6-1.529-1.425-2.591-2.462l-9.9-8.551c-2.021-1.814-4.3-3.653-6.763-5.545l-7.773-6.037c-2.591-2.125-5.467-4.146-8.369-6.193s-5.83-4.172-8.784-6.245c-5.959-4.068-12.1-7.773-17.8-11.53l-16.039-9.224-16.065-8.24s-.233-.6-.622-1.658-.985-2.591-1.71-4.3c-1.425-3.55-3.42-8.317-5.493-13.111-1.088-2.41-2.151-4.819-3.135-7.074s-2.073-4.275-2.928-6.037l-2.9-5.83-5.934-2.358c-3.731-1.581-9.276-3.343-15.857-5.6a408.539,408.539,0,0,0-99.731-20.236c-6.918-.492-12.7-1.011-16.739-1.036l-6.374-.155" transform="translate(529.866 0.682)" fill="none" stroke="#5fc6ff" stroke-miterlimit="10" stroke-width="0.52"/>
      <path id="Path_150" data-name="Path 150" d="M484.46,139.33h7.125l4.949.13c3.627.181,7.773,0,12.385.44s9.354.648,14.147,1.114l14.07,1.762,12.152,2.176c3.576.544,6.478,1.373,8.525,1.814l3.239.751s4.638,9.276,8.343,18.915c1.891,4.794,3.679,9.406,4.9,12.955l1.943,6.011,2.8.959c1.814.674,4.56,1.373,7.773,2.8a263.406,263.406,0,0,1,27.284,12.1,271.679,271.679,0,0,1,72.551,53.895A279.835,279.835,0,0,1,717.062,292.9a269.449,269.449,0,0,1,20.573,36.871l3.654,8.058,2.9,7.462c2,4.612,3.213,8.81,4.4,12.2.6,1.71,1.114,3.239,1.555,4.56s.726,2.591.984,3.394l.8,2.85,3.938,1.477c2.591.959,6.244,2.306,10.364,4.146a304.885,304.885,0,0,1,31.093,15.547c2.8,1.607,5.6,3.239,8.369,4.923s5.182,3.394,7.773,5.182c5.182,3.394,9.9,6.711,13.992,9.691,7.773,5.96,13.163,10.364,13.163,10.364" transform="translate(519.174 73.347)" fill="none" stroke="#5fc6ff" stroke-miterlimit="10" stroke-width="0.52"/>
      <path id="Path_151" data-name="Path 151" d="M619.3,148.61l-5.338,1.788-13.759,5.467a324.486,324.486,0,0,0-39.877,20.729,286.439,286.439,0,0,0-36.275,26.533l-6.348,5.493c-1.891,1.632-3.394,3.213-4.716,4.431-2.591,2.591-4.094,3.887-4.094,3.887s-2.462-.363-6.141-.751-8.577-.751-13.6-1.062-10.157-.544-13.888-.544h-6.374l-2.41,2.8-2.772,3.187-3.368,4.3c-5.053,6.244-11.4,14.873-17.308,23.786l-4.327,6.737c-1.451,2.2-2.824,4.379-4.016,6.581-2.591,4.379-4.9,8.369-6.789,11.919l-6.089,11.893s-.959.233-2.591.7l-6.581,1.969c-2.747.855-5.959,1.866-9.432,3.032s-7.229,2.41-10.8,3.835c-7.229,2.824-14.666,5.882-20.159,8.343l-9.017,4.327-1.71,5c-.518,1.581-1.244,3.5-1.866,5.752s-1.373,4.768-2.151,7.54-1.658,5.778-2.591,8.939-1.529,6.607-2.358,10.105c-1.762,6.97-3.006,14.562-4.353,22.1-.751,3.783-1.192,7.592-1.658,11.323s-.959,7.436-1.4,11.012c-.57,7.151-1.088,13.862-1.529,19.589l-.492,19.174" transform="translate(294.289 88.112)" fill="none" stroke="#5fc6ff" stroke-miterlimit="10" stroke-width="0.52"/>
      <path id="Path_152" data-name="Path 152" d="M327.28,459s0-1.762.13-4.871c0-1.555,0-3.446.155-5.6s.337-4.612.544-7.255c.648-10.649,2.176-24.8,4.483-38.866.622-3.5,1.244-7,1.866-10.364.311-1.736.622-3.446.907-5.182s.751-3.342,1.114-4.949c1.555-6.5,2.824-12.619,4.224-17.749l4.871-17.153s-4.742-10.364-9.173-21.687c-2.332-5.6-4.12-11.168-5.648-15.547l-2.41-7.2.933-2.384c.622-1.529,1.477-3.809,2.8-6.633l4.586-10.209,2.876-6.27,3.42-6.815c2.462-4.716,4.975-9.924,7.981-15.21l9.561-16.609,11.064-17.231c3.99-5.726,8.11-11.479,12.23-17.257a443.625,443.625,0,0,1,51.822-58.041c15.546-14.562,26.662-23.32,26.662-23.32" transform="translate(269.086 46.728)" fill="none" stroke="#5fc6ff" stroke-miterlimit="10" stroke-width="0.52"/>
      <path id="Path_153" data-name="Path 153" d="M367.07,347.951l.855-10.986c.13-3.291.726-7.1,1.244-11.194s.985-8.447,1.866-12.774,1.4-8.654,2.358-12.67,1.788-7.773,2.591-10.96,1.606-5.8,2.073-7.773l.829-2.9s3.576-1.581,8.836-3.783,12.7-4.742,19.8-7.074,14.51-4.172,19.8-5.493c2.591-.674,4.845-1.192,6.478-1.5l2.591-.492,1.529-3.368c1.036-2.125,2.2-5.182,4.146-8.81s3.809-7.773,6.478-12.178l3.861-6.763c1.4-2.254,2.9-4.483,4.327-6.763,2.772-4.638,6.115-8.887,8.965-12.955s6.037-7.773,8.473-10.934l8.784-10.235" transform="translate(332.396 151.326)" fill="none" stroke="#5fc6ff" stroke-miterlimit="10" stroke-width="0.52"/>
      <path id="Path_154" data-name="Path 154" d="M610.07,167.1l6.5,9.147c2,2.591,3.99,6.063,6.3,9.561s4.793,7.255,7,11.168c4.482,7.773,8.991,15.547,11.919,21.558l3.705,7.229c.881,1.736,1.373,2.747,1.373,2.747s4.172,1.632,10.52,4.275,14.977,6.374,23.32,10.649c4.2,2.1,8.4,4.275,12.386,6.4s7.488,4.224,10.623,6.037c6.193,3.679,10.364,6.27,10.364,6.27s.726,2.047,1.865,5.7l4.327,15.184,1.373,4.9c.414,1.71.829,3.5,1.244,5.312l2.591,11.478c.959,3.964,1.71,8.11,2.591,12.334s1.5,8.5,2.254,12.8c1.244,8.6,2.332,17.231,3.239,25.341s1.269,15.7,1.632,22.206c.311,12.955.544,21.687.544,21.687" transform="translate(719.031 117.532)" fill="none" stroke="#5fc6ff" stroke-miterlimit="10" stroke-width="0.52"/>
      <path id="Path_155" data-name="Path 155" d="M404.06,170.741l5.623-3.239c3.55-2.151,8.81-4.794,15.132-8.032a440.089,440.089,0,0,1,47.6-20.729c8.965-2.98,17.853-6.27,26.429-8.525l12.282-3.472,11.142-2.591,9.432-2.177c2.824-.57,5.182-.959,7.333-1.347l6.374-1.14,5.571-6.763c3.394-4.042,8.058-9.147,12.956-14.381s9.9-10.364,13.785-14.07l6.555-6.219,6.115-.44c3.913-.389,9.483-.492,16.143-.674l10.8-.233c3.809,0,7.773,0,12.023.181l12.956.363c4.379.259,8.836.622,13.292.959s8.913.6,13.266,1.14L681.7,80.959c8.343.933,16.039,2.591,22.646,3.628l8.991,1.658,6.685,1.581,6.011,1.4" transform="translate(391.25 -26.287)" fill="none" stroke="#5fc6ff" stroke-miterlimit="10" stroke-width="0.52"/>
      <rect id="Rectangle_18" data-name="Rectangle 18" width="15.65" height="6.549" rx="0.796" transform="translate(1053.799 86.282) rotate(5.768)" fill="#60c8ff"/>
      <rect id="Rectangle_19" data-name="Rectangle 19" width="15.728" height="6.581" rx="0.8" transform="translate(890.37 153.985) rotate(-16.76)" fill="#60c8ff"/>
      <rect id="Rectangle_20" data-name="Rectangle 20" width="19.537" height="8.188" rx="1" transform="translate(580.409 608.671) rotate(79.22)" fill="#60c8ff"/>
      <rect id="Rectangle_21" data-name="Rectangle 21" width="14.251" height="5.985" rx="0.73" transform="matrix(0.998, 0.058, -0.058, 0.998, 983.684, 866.457)" fill="#60c8ff"/>
      <rect id="Rectangle_22" data-name="Rectangle 22" width="14.381" height="6.011" rx="0.73" transform="matrix(-0.171, 0.985, -0.985, -0.171, 1381.308, 573.674)" fill="#60c8ff"/>
      <rect id="Rectangle_23" data-name="Rectangle 23" width="14.381" height="6.011" rx="0.73" transform="translate(1263.235 235.899) rotate(41.59)" fill="#60c8ff"/>
      <rect id="Rectangle_24" data-name="Rectangle 24" width="14.381" height="6.011" rx="0.73" transform="matrix(-0.824, 0.567, -0.567, -0.824, 1247.947, 846.18)" fill="#60c8ff"/>
      <rect id="Rectangle_25" data-name="Rectangle 25" width="14.381" height="6.011" rx="0.73" transform="translate(653.12 245.519) rotate(-51.99)" fill="#60c8ff"/>
      <path id="Path_156" data-name="Path 156" d="M386.075,125.132a4.2,4.2,0,1,1-4.172-4.172,4.2,4.2,0,0,1,4.172,4.172Z" transform="translate(349.277 44.118)" fill="#5fc6ff"/>
      <path id="Path_157" data-name="Path 157" d="M535.575,120.448a4.2,4.2,0,1,1-4.2-4.2A4.2,4.2,0,0,1,535.575,120.448Z" transform="translate(587.146 36.625)" fill="#5fc6ff"/>
      <path id="Path_158" data-name="Path 158" d="M357.805,183.808a4.2,4.2,0,1,1-4.172-4.2A4.2,4.2,0,0,1,357.805,183.808Z" transform="translate(304.297 137.436)" fill="#5fc6ff"/>
      <path id="Path_159" data-name="Path 159" d="M616.235,168.342a4.2,4.2,0,1,1-4.2-4.172,4.2,4.2,0,0,1,4.2,4.172Z" transform="translate(715.483 112.87)" fill="#5fc6ff"/>
      <path id="Path_160" data-name="Path 160" d="M547.665,113.248a4.2,4.2,0,1,1-4.2-4.2,4.2,4.2,0,0,1,4.2,4.2Z" transform="translate(606.382 25.169)" fill="#5fc6ff"/>
      <path id="Path_161" data-name="Path 161" d="M611.605,328.038a4.2,4.2,0,1,1-4.2-4.2A4.2,4.2,0,0,1,611.605,328.038Z" transform="translate(708.116 366.92)" fill="#5fc6ff"/>
      <path id="Path_162" data-name="Path 162" d="M613.685,264.762a4.172,4.172,0,1,1-1.231-2.959,4.2,4.2,0,0,1,1.231,2.959Z" transform="translate(711.426 266.283)" fill="#5fc6ff"/>
      <path id="Path_163" data-name="Path 163" d="M497.215,376.488a4.2,4.2,0,1,1-4.2-4.2,4.2,4.2,0,0,1,4.2,4.2Z" transform="translate(526.111 444.008)" fill="#5fc6ff"/>
      <path id="Path_164" data-name="Path 164" d="M440.285,405.048a4.2,4.2,0,1,1-4.2-4.2,4.2,4.2,0,0,1,4.2,4.2Z" transform="translate(435.53 489.45)" fill="#5fc6ff"/>
      <path id="Path_165" data-name="Path 165" d="M508.615,404.562a4.2,4.2,0,1,1-4.2-4.172,4.2,4.2,0,0,1,4.2,4.172Z" transform="translate(544.25 488.718)" fill="#5fc6ff"/>
      <path id="Path_166" data-name="Path 166" d="M600.335,393.9a4.2,4.2,0,1,1-4.2-4.2A4.2,4.2,0,0,1,600.335,393.9Z" transform="translate(690.185 471.709)" fill="#5fc6ff"/>
      <path id="Path_167" data-name="Path 167" d="M322.155,257.762a4.171,4.171,0,1,1-1.231-2.959A4.2,4.2,0,0,1,322.155,257.762Z" transform="translate(247.574 255.145)" fill="#5fc6ff"/>
      <path id="Path_168" data-name="Path 168" d="M371.415,349.948a4.2,4.2,0,1,1-4.2-4.2,4.2,4.2,0,0,1,4.2,4.2Z" transform="translate(325.952 401.78)" fill="#5fc6ff"/>
      <path id="Path_169" data-name="Path 169" d="M370.9,369.882a4.172,4.172,0,1,1-1.231-2.959,4.2,4.2,0,0,1,1.231,2.959Z" transform="translate(325.124 433.539)" fill="none" stroke="#5fc6ff" stroke-miterlimit="10" stroke-width="0.52"/>
      <path id="Path_170" data-name="Path 170" d="M357.525,267.348a4.2,4.2,0,1,1-4.2-4.2A4.2,4.2,0,0,1,357.525,267.348Z" transform="translate(303.851 270.356)" fill="none" stroke="#5fc6ff" stroke-miterlimit="10" stroke-width="0.52"/>
      <path id="Path_171" data-name="Path 171" d="M457.985,150.358a4.2,4.2,0,1,1-4.2-4.2,4.2,4.2,0,0,1,4.2,4.2Z" transform="translate(463.693 84.214)" fill="none" stroke="#5fc6ff" stroke-miterlimit="10" stroke-width="0.52"/>
      <path id="Path_172" data-name="Path 172" d="M536.605,84.728a4.172,4.172,0,1,1-1.222-2.976,4.2,4.2,0,0,1,1.222,2.976Z" transform="translate(588.784 -20.209)" fill="none" stroke="#5fc6ff" stroke-miterlimit="10" stroke-width="0.52"/>
      <path id="Path_173" data-name="Path 173" d="M489.755,141.968a4.2,4.2,0,1,1-4.172-4.2,4.2,4.2,0,0,1,4.172,4.2Z" transform="translate(514.242 70.865)" fill="none" stroke="#5fc6ff" stroke-miterlimit="10" stroke-width="0.52"/>
      <path id="Path_174" data-name="Path 174" d="M616.655,148.368a4.2,4.2,0,1,1-4.2-4.2,4.2,4.2,0,0,1,4.2,4.2Z" transform="translate(716.151 81.048)" fill="none" stroke="#5fc6ff" stroke-miterlimit="10" stroke-width="0.52"/>
      <path id="Path_175" data-name="Path 175" d="M606.155,191.978a4.2,4.2,0,1,1-4.2-4.2A4.2,4.2,0,0,1,606.155,191.978Z" transform="translate(699.445 150.435)" fill="none" stroke="#5fc6ff" stroke-miterlimit="10" stroke-width="0.52"/>
      <path id="Path_176" data-name="Path 176" d="M653.325,261.958a4.172,4.172,0,1,1-1.213-2.967,4.2,4.2,0,0,1,1.213,2.967Z" transform="translate(774.497 261.78)" fill="none" stroke="#5fc6ff" stroke-miterlimit="10" stroke-width="0.52"/>
      <path id="Path_177" data-name="Path 177" d="M629.455,208.488a4.172,4.172,0,1,1-1.213-2.966,4.2,4.2,0,0,1,1.213,2.966Z" transform="translate(736.517 176.704)" fill="none" stroke="#5fc6ff" stroke-miterlimit="10" stroke-width="0.52"/>
      <path id="Path_178" data-name="Path 178" d="M529.745,367.762a4.2,4.2,0,1,1-4.172-4.172A4.2,4.2,0,0,1,529.745,367.762Z" transform="translate(577.869 430.165)" fill="none" stroke="#5fc6ff" stroke-miterlimit="10" stroke-width="0.52"/>
    </g>
  </g>
</svg>
