<svg xmlns="http://www.w3.org/2000/svg" width="136.974" height="95.729" viewBox="0 0 136.974 95.729">
  <g id="_Group_" data-name="&lt;Group&gt;" transform="translate(-4.538 -80.416)">
    <path id="_Compound_Path_" data-name="&lt;Compound Path&gt;" d="M130.222,124.5a77.508,77.508,0,0,0-20.061-2.831V92.57a2.7,2.7,0,0,0-.749-1.9c-1.021-3.047-4.623-5.525-10.774-7.383a81.038,81.038,0,0,0-22.543-2.87A78.89,78.89,0,0,0,53.757,83.29c-4.945,1.527-10.838,4.366-10.838,9.236a5.544,5.544,0,0,0,.078.9l.3,12.418a32.633,32.633,0,1,0,14.438,57.378,82.59,82.59,0,0,0,17.521,1.914c1.389,7.551,17.771,11.006,33.039,11.006a78.574,78.574,0,0,0,22.358-2.9c4.981-1.538,10.855-4.394,10.855-9.265V133.994a2.672,2.672,0,0,0-.378-1.464C140.423,129.186,136.8,126.489,130.222,124.5Zm-74.9-36a73.594,73.594,0,0,1,20.757-2.632A76.779,76.779,0,0,1,97.062,88.5c5.93,1.792,7.219,3.656,7.219,4.022S103,94.768,97.07,96.561A76.615,76.615,0,0,1,76.1,99.2a75.152,75.152,0,0,1-20.093-2.44c-5.852-1.7-7.524-3.568-7.666-4.161a.116.116,0,0,0-.06-.075C48.28,91.934,50.1,90.111,55.321,88.5Zm49.388,10.781v6.826a2.9,2.9,0,0,0-.447,1.532c0,.368-1.271,2.241-7.2,4.035a76.565,76.565,0,0,1-20.965,2.639,79.228,79.228,0,0,1-18.561-2.032c-.077-.019-.152-.033-.229-.046A32.155,32.155,0,0,0,48.79,107.4L48.6,99.723A32.131,32.131,0,0,0,54.488,102,80.7,80.7,0,0,0,76.1,104.651a80.828,80.828,0,0,0,22.525-2.872,29.914,29.914,0,0,0,6.082-2.5ZM55.455,158a27.178,27.178,0,1,1-18.279-47.281,27.473,27.473,0,0,1,8.042,1.2,26.862,26.862,0,0,1,9.645,5.358A27.149,27.149,0,0,1,63.8,132.407a28.315,28.315,0,0,1,.545,5.487A27.1,27.1,0,0,1,55.455,158Zm6.927.6a32.648,32.648,0,0,0,5.243-8.975c2.344.2,4.805.318,7.344.344a2.708,2.708,0,0,0,.013.951l.114,8.766A82.716,82.716,0,0,1,62.382,158.6Zm7.257-23.934c1.605.1,3.273.166,4.992.188a5.6,5.6,0,0,0,.15.576l.118,9.089c-1.97-.023-3.886-.1-5.729-.238A32.773,32.773,0,0,0,69.8,137.9c0-1.072-.054-2.151-.159-3.231Zm6.666-5.242c-.072-.006-.136-.011-.211-.011-2.635,0-5.146-.1-7.492-.287a32.658,32.658,0,0,0-4.852-10.143,94.3,94.3,0,0,0,12.349.783,80.824,80.824,0,0,0,22.525-2.872,29.892,29.892,0,0,0,6.084-2.5v7.29A77.7,77.7,0,0,0,86.38,124.2c-4.815,1.358-8.177,3.109-10.074,5.222Zm3.756,4.064c.452-.833,2.52-2.495,7.824-3.991a75.242,75.242,0,0,1,19.6-2.306h.209c7.787,0,15.431.911,20.973,2.583,5.737,1.732,7.125,3.489,7.208,3.957,0,.013,0,.025,0,.037-.029.406-1.376,2.29-7.423,4.077a76.274,76.274,0,0,1-20.756,2.567,76.731,76.731,0,0,1-19.509-2.274c-5.113-1.4-7.329-3.007-7.985-3.925A2.713,2.713,0,0,0,80.062,133.487Zm56,30.49c0,.371-1.2,2.259-7.011,4.056a73.288,73.288,0,0,1-20.78,2.66,73.828,73.828,0,0,1-20.7-2.6c-5.217-1.6-6.965-3.417-6.965-4,0-.015,0-.031,0-.046l-.027-1.675L80.5,156.2a34.931,34.931,0,0,0,6.8,2.451,83.6,83.6,0,0,0,20.4,2.319,80.162,80.162,0,0,0,22.432-2.865,24.762,24.762,0,0,0,5.928-2.474Zm0-16.553c0,.418-.351.91-.351,1.44,0,.368-1.243,2.243-7.128,4.028a75,75,0,0,1-20.9,2.631c-14.816,0-24.921-3.3-27.265-5.92l-.112-8.625c6.424,3.34,17.249,4.884,27.392,4.884a81.313,81.313,0,0,0,22.239-2.79,29.586,29.586,0,0,0,6.121-2.475Z"/>
    <path id="_Compound_Path_2" data-name="&lt;Compound Path&gt;" d="M76.245,225.25a18,18,0,1,0,18,18A18,18,0,0,0,76.245,225.25Zm0,30.54a12.544,12.544,0,1,1,12.544-12.544A12.544,12.544,0,0,1,76.245,255.79Z" transform="translate(-39.069 -105.352)"/>
  </g>
</svg>
